<?xml version="1.0" encoding="UTF-8"?>
<svg width="200" height="60" viewBox="0 0 200 60" version="1.1" xmlns="http://www.w3.org/2000/svg">
    <g fill="none" fill-rule="evenodd">
        <path d="M30 10c11.046 0 20 8.954 20 20s-8.954 20-20 20-20-8.954-20-20 8.954-20 20-20zm0 10c-5.523 0-10 4.477-10 10s4.477 10 10 10 10-4.477 10-10-4.477-10-10-10z" fill="#2C5282"/>
        <path d="M30 15c8.284 0 15 6.716 15 15 0 8.284-6.716 15-15 15-8.284 0-15-6.716-15-15 0-8.284 6.716-15 15-15zm0 7.5c-4.142 0-7.5 3.358-7.5 7.5s3.358 7.5 7.5 7.5 7.5-3.358 7.5-7.5-3.358-7.5-7.5-7.5z" fill="#4299E1"/>
        <path d="M70 25h8.4c1.9 0 3.4.5 4.5 1.4 1.1.9 1.7 2.2 1.7 3.8 0 1.6-.6 2.9-1.7 3.8-1.1.9-2.6 1.4-4.5 1.4H70V25zm8.4 8.4c1.2 0 2.1-.3 2.8-.8.7-.5 1-1.3 1-2.4s-.3-1.9-1-2.4c-.7-.5-1.6-.8-2.8-.8H72v6.4h6.4zm12.2-8.4h2v10.4h-2V25zm14.2 0h2l-5.2 10.4h-2L94.4 25h2l4.2 8.8 4.2-8.8zm12.6-.2c1.7 0 3 .5 4 1.4 1 .9 1.5 2.2 1.5 3.8 0 1.6-.5 2.9-1.5 3.8-1 .9-2.3 1.4-4 1.4h-6.2V25h6.2zm0 8.6c1.2 0 2.1-.3 2.8-.9.7-.6 1-1.4 1-2.5s-.3-1.9-1-2.5c-.7-.6-1.6-.9-2.8-.9h-4.2v6.8h4.2zm18.8-8.4h2v10.4h-2v-4.4h-7.6v4.4h-2V25h2v4h7.6v-4zm12.6-.2c1.7 0 3 .5 4 1.4 1 .9 1.5 2.2 1.5 3.8 0 1.6-.5 2.9-1.5 3.8-1 .9-2.3 1.4-4 1.4h-6.2V25h6.2zm0 8.6c1.2 0 2.1-.3 2.8-.9.7-.6 1-1.4 1-2.5s-.3-1.9-1-2.5c-.7-.6-1.6-.9-2.8-.9h-4.2v6.8h4.2z" fill="#2D3748"/>
    </g>
</svg> 